<svg xmlns="http://www.w3.org/2000/svg" xmlns:xlink="http://www.w3.org/1999/xlink" xmlns:inkscape="http://www.inkscape.org/namespaces/inkscape" version="1.1" width="408" height="238.08" viewBox="0 0 408 238.08">
<defs>
<clipPath id="clip_0">
<path transform="matrix(.24,0,0,.24,0,0)" d="M0 0H1700.9766V993H0Z" clip-rule="evenodd"/>
</clipPath>
<clipPath id="clip_1">
<path transform="matrix(.24,0,0,.24,0,0)" d="M0 0H1700.9766V993H0Z" clip-rule="evenodd"/>
</clipPath>
</defs>
<g clip-path="url(#clip_0)">
<path transform="matrix(.75,0,0,.75,0,0)" d="M0 0H544V318H0Z" fill="#ffffff"/>
</g>
<g clip-path="url(#clip_1)">
<path transform="matrix(.7193401,0,0,.7193401,-51.78804,-870.0418)" stroke-width="1" stroke-linecap="butt" stroke-miterlimit="10" stroke-linejoin="miter" fill="none" stroke="#000000" d="M73 1315H637"/>
<path transform="matrix(.7193401,0,0,.7193401,-51.78804,-870.0418)" stroke-width="1" stroke-linecap="butt" stroke-miterlimit="10" stroke-linejoin="miter" fill="none" stroke="#000000" d="M73 1396H637"/>
<text xml:space="preserve" transform="matrix(.7193401 0 0 .7193401 -52.147714 -870.4015)" font-size="16" font-family="Arial" font-weight="bold"><tspan y="1296" x="79.21875 88.99475 97.890758 107.666759 117.44276 127.21876 136.11476 145.89076">Language</tspan></text>
<text xml:space="preserve" transform="matrix(.7193401 0 0 .7193401 -52.147714 -870.4015)" font-size="16" font-family="Arial" font-weight="bold"><tspan y="1358" x="93.890628 107.21863 116.99463 126.77063 135.66663">Model</tspan></text>
<text xml:space="preserve" transform="matrix(.7193401 0 0 .7193401 -52.147714 -870.4015)" font-size="16" font-family="Arial" font-weight="bold"><tspan y="1471" x="78.765628 89.43762 98.333629 107.22963 116.12563 125.901638 131.22963 135.67763 145.45363">Execution</tspan></text>
<path transform="matrix(.7193401,0,0,.7193401,-51.78804,-870.0418)" stroke-width="1" stroke-linecap="butt" stroke-miterlimit="10" stroke-linejoin="miter" fill="none" stroke="#000000" d="M73 1538H637"/>
<path transform="matrix(.7193401,0,0,.7193401,-51.78804,-870.0418)" stroke-width="1" stroke-linecap="butt" stroke-miterlimit="10" stroke-linejoin="miter" fill="none" stroke="#000000" d="M159 1218V1538"/>
<path transform="matrix(.7193401,0,0,.7193401,-51.78804,-870.0418)" stroke-width="1" stroke-linecap="butt" stroke-miterlimit="10" stroke-linejoin="miter" fill="none" stroke="#000000" d="M73 1265H637"/>
<text xml:space="preserve" transform="matrix(.7193401 0 0 .7193401 -52.147714 -870.4015)" font-size="13" font-family="Arial" font-weight="bold"><tspan y="1261" x="86.875 94.818 102.046009 109.274 116.502">Level</tspan></text>
<path transform="matrix(.7193401,0,0,.7193401,-51.78804,-870.0418)" stroke-width="1" stroke-linecap="butt" stroke-miterlimit="10" stroke-linejoin="miter" fill="none" stroke="#000000" d="M73 1225 159 1265"/>
<text xml:space="preserve" transform="matrix(.7193401 0 0 .7193401 -52.147714 -870.4015)" font-size="13" font-family="Arial" font-weight="bold"><tspan y="1237" x="101.8125 111.1985 118.4265 122.7555 129.9835 137.9265 145.86949 150.9265">Category</tspan></text>
<text xml:space="preserve" transform="matrix(.7193401 0 0 .7193401 -52.147714 -870.4015)" font-size="13" font-family="Arial" font-weight="bold"><tspan y="1245" x="161.4375 170.8235 178.7665 183.09549 191.7665 195.3805 206.9375 214.8805 218.49449 225.72249 230.05149 233.66548 241.60848">Co-Simulation</tspan></text>
<path transform="matrix(.7193401,0,0,.7193401,-51.78804,-870.0418)" stroke-width="1" stroke-linecap="butt" stroke-miterlimit="10" stroke-linejoin="miter" fill="none" stroke="#000000" d="M251 1218V1538"/>
<text xml:space="preserve" transform="matrix(.7193401 0 0 .7193401 -52.147714 -870.4015)" font-size="13" font-family="Arial" font-weight="bold"><tspan y="1237" x="256.5625 265.9485 273.89149 281.83448 286.89149 294.83448 298.4485 306.39149 313.61949 317.9485 321.5625 329.5055">Coordination</tspan></text>
<text xml:space="preserve" transform="matrix(.7193401 0 0 .7193401 -52.147714 -870.4015)" font-size="13" font-family="Arial" font-weight="bold"><tspan y="1253" x="268.46876 272.08277 279.31077 287.25376 295.19676 303.13975 310.36775 318.31074">language</tspan></text>
<text xml:space="preserve" transform="matrix(.7193401 0 0 .7193401 -52.147714 -870.4015)" font-size="13" font-family="Arial" font-weight="bold"><tspan y="1229" x="351.21876 360.60475 365.66175 372.88975 380.83274 384.44676 388.77577 396.00376 403.23176 407.56077 415.50376 420.56077">Architecture</tspan></text>
<text xml:space="preserve" transform="matrix(.7193401 0 0 .7193401 -52.147714 -870.4015)" font-size="13" font-family="Arial" font-weight="bold"><tspan y="1245" x="354.46876 362.41175 369.63975 376.86775 384.09574 389.15275 392.76676 400.70976 405.03877 408.65278 416.59577">description</tspan></text>
<text xml:space="preserve" transform="matrix(.7193401 0 0 .7193401 -52.147714 -870.4015)" font-size="13" font-family="Arial" font-weight="bold"><tspan y="1260" x="360.96876 364.58277 371.81077 379.75376 387.69676 395.63975 402.86775 410.81074">language</tspan></text>
<text xml:space="preserve" transform="matrix(.7193401 0 0 .7193401 -52.147714 -870.4015)" font-size="13" font-family="Arial" font-weight="bold"><tspan y="1245" x="457.76564 467.1516 475.0946 483.0376 488.0946 496.0376 499.6516 507.5946 514.82266 519.1516 522.7656 530.7086 538.6516 542.2656 546.5946 551.6516 558.87966 570.43667 577.6647 587.7787 595.7217 600.7787 608.0067">Coordination frameworks</tspan></text>
<path transform="matrix(.7193401,0,0,.7193401,-51.78804,-870.0418)" stroke-width="1" stroke-linecap="butt" stroke-miterlimit="10" stroke-linejoin="miter" fill="none" stroke="#000000" d="M343 1218V1538"/>
<path transform="matrix(.7193401,0,0,.7193401,-51.78804,-870.0418)" stroke-width="1" stroke-linecap="butt" stroke-miterlimit="10" stroke-linejoin="miter" fill="none" stroke="#000000" d="M435 1218V1538"/>
<path transform="matrix(.7193401,0,0,.7193401,-51.78804,-870.0418)" stroke-width="1" stroke-linecap="butt" stroke-miterlimit="10" stroke-linejoin="miter" fill="none" stroke="#000000" d="M637 1218V1538"/>
<path transform="matrix(.7193401,0,0,.7193401,-51.78804,-870.0418)" d="M164 1401H246V1421H164Z" fill="#60a917"/>
<path transform="matrix(.7193401,0,0,.7193401,-51.78804,-870.0418)" stroke-width="1" stroke-linecap="butt" stroke-miterlimit="4" stroke-linejoin="miter" fill="none" stroke="#2d7600" d="M164 1401H246V1421H164Z"/>
<text fill="#ffffff" xml:space="preserve" transform="matrix(.7193401 0 0 .7193401 -52.147714 -870.4015)" font-size="12" font-family="ArialMT"><tspan y="1415" x="171.64063 179.64463 182.30863 192.30463 198.97663 201.64063 208.31262 211.64862 214.31262 220.98462 227.65662 230.33985">Simulation A</tspan></text>
<path transform="matrix(.7193401,0,0,.7193401,-51.78804,-870.0418)" d="M164 1513H246V1533H164Z" fill="#60a917"/>
<path transform="matrix(.7193401,0,0,.7193401,-51.78804,-870.0418)" stroke-width="1" stroke-linecap="butt" stroke-miterlimit="4" stroke-linejoin="miter" fill="none" stroke="#2d7600" d="M164 1513H246V1533H164Z"/>
<text fill="#ffffff" xml:space="preserve" transform="matrix(.7193401 0 0 .7193401 -52.147714 -870.4015)" font-size="12" font-family="ArialMT"><tspan y="1527" x="171.3125 179.3165 181.9805 191.9765 198.6485 201.3125 207.9845 211.3205 213.9845 220.6565 227.32849 230.66449">Simulation B</tspan></text>
<path transform="matrix(.7193401,0,0,.7193401,-51.78804,-870.0418)" stroke-width="1" stroke-linecap="butt" stroke-miterlimit="10" stroke-linejoin="miter" fill="none" stroke="#000000" d="M205 1427.37V1447.63"/>
<path transform="matrix(.7193401,0,0,.7193401,-51.78804,-870.0418)" d="M205 1422.12 208.5 1429.12 205 1427.37 201.5 1429.12 205 1422.12Z"/>
<path transform="matrix(.7193401,0,0,.7193401,-51.78804,-870.0418)" stroke-width="1" stroke-linecap="butt" stroke-miterlimit="10" stroke-linejoin="miter" fill="none" stroke="#000000" d="M205 1422.12 208.5 1429.12 205 1427.37 201.5 1429.12 205 1422.12Z"/>
<path transform="matrix(.7193401,0,0,.7193401,-51.78804,-870.0418)" d="M205 1452.88 201.5 1445.88 205 1447.63 208.5 1445.88 205 1452.88Z"/>
<path transform="matrix(.7193401,0,0,.7193401,-51.78804,-870.0418)" stroke-width="1" stroke-linecap="butt" stroke-miterlimit="10" stroke-linejoin="miter" fill="none" stroke="#000000" d="M205 1452.88 201.5 1445.88 205 1447.63 208.5 1445.88 205 1452.88Z"/>
<path transform="matrix(.7193401,0,0,.7193401,-51.78804,-870.0418)" d="M167.9 1454H242.1C242.61716 1454 243.11464 1454.0989 243.59244 1454.2966 244.07025 1454.4946 244.492 1454.7765 244.85771 1455.1422 245.22339 1455.5078 245.50519 1455.9296 245.70311 1456.4072 245.90102 1456.8851 245.99999 1457.3828 246 1457.9V1476.1C245.99999 1476.6171 245.90102 1477.1145 245.70311 1477.5924 245.50519 1478.0702 245.22339 1478.492 244.85771 1478.8577 244.492 1479.2233 244.07025 1479.505 243.59246 1479.703 243.11464 1479.9009 242.61716 1479.9999 242.1 1480H167.9C167.38283 1479.9999 166.88533 1479.9009 166.40752 1479.703 165.9297 1479.505 165.50795 1479.2233 165.14226 1478.8577 164.77657 1478.492 164.49477 1478.0702 164.29685 1477.5924 164.09894 1477.1145 163.99999 1476.6171 164 1476.1V1457.9C163.99999 1457.3828 164.09894 1456.8851 164.29685 1456.4072 164.49477 1455.9296 164.77658 1455.5078 165.14229 1455.1422 165.50797 1454.7765 165.92972 1454.4946 166.40753 1454.2968 166.88533 1454.0989 167.38283 1454 167.9 1454Z" fill="#f5f5f5"/>
<path transform="matrix(.7193401,0,0,.7193401,-51.78804,-870.0418)" stroke-width="1" stroke-linecap="butt" stroke-miterlimit="4" stroke-linejoin="miter" fill="none" stroke="#666666" d="M167.9 1454H242.1C242.61716 1454 243.11464 1454.0989 243.59244 1454.2966 244.07025 1454.4946 244.492 1454.7765 244.85771 1455.1422 245.22339 1455.5078 245.50519 1455.9296 245.70311 1456.4072 245.90102 1456.8851 245.99999 1457.3828 246 1457.9V1476.1C245.99999 1476.6171 245.90102 1477.1145 245.70311 1477.5924 245.50519 1478.0702 245.22339 1478.492 244.85771 1478.8577 244.492 1479.2233 244.07025 1479.505 243.59246 1479.703 243.11464 1479.9009 242.61716 1479.9999 242.1 1480H167.9C167.38283 1479.9999 166.88533 1479.9009 166.40752 1479.703 165.9297 1479.505 165.50795 1479.2233 165.14226 1478.8577 164.77657 1478.492 164.49477 1478.0702 164.29685 1477.5924 164.09894 1477.1145 163.99999 1476.6171 164 1476.1V1457.9C163.99999 1457.3828 164.09894 1456.8851 164.29685 1456.4072 164.49477 1455.9296 164.77658 1455.5078 165.14229 1455.1422 165.50797 1454.7765 165.92972 1454.4946 166.40753 1454.2968 166.88533 1454.0989 167.38283 1454 167.9 1454Z"/>
<text fill="#333333" xml:space="preserve" transform="matrix(.7193401 0 0 .7193401 -52.147714 -870.4015)" font-size="12" font-family="ArialMT"><tspan y="1471" x="171.65625 180.99225 184.98825 190.98825 197.66025 204.33225 210.33225 213.66825 217.66425 224.33625 227.67224 234.34424">Orchestrator</tspan></text>
<path transform="matrix(.7193401,0,0,.7193401,-51.78804,-870.0418)" stroke-width="1" stroke-linecap="butt" stroke-miterlimit="10" stroke-linejoin="miter" fill="none" stroke="#000000" d="M205 1506.63V1486.37"/>
<path transform="matrix(.7193401,0,0,.7193401,-51.78804,-870.0418)" d="M205 1511.88 201.5 1504.88 205 1506.63 208.5 1504.88 205 1511.88Z"/>
<path transform="matrix(.7193401,0,0,.7193401,-51.78804,-870.0418)" stroke-width="1" stroke-linecap="butt" stroke-miterlimit="10" stroke-linejoin="miter" fill="none" stroke="#000000" d="M205 1511.88 201.5 1504.88 205 1506.63 208.5 1504.88 205 1511.88Z"/>
<path transform="matrix(.7193401,0,0,.7193401,-51.78804,-870.0418)" d="M205 1481.12 208.5 1488.12 205 1486.37 201.5 1488.12 205 1481.12Z"/>
<path transform="matrix(.7193401,0,0,.7193401,-51.78804,-870.0418)" stroke-width="1" stroke-linecap="butt" stroke-miterlimit="10" stroke-linejoin="miter" fill="none" stroke="#000000" d="M205 1481.12 208.5 1488.12 205 1486.37 201.5 1488.12 205 1481.12Z"/>
<path transform="matrix(.7193401,0,0,.7193401,-51.78804,-870.0418)" stroke-width="1" stroke-linecap="butt" stroke-miterlimit="10" stroke-linejoin="miter" fill="none" stroke="#000000" d="M297 1427.37V1439.63"/>
<path transform="matrix(.7193401,0,0,.7193401,-51.78804,-870.0418)" d="M297 1422.12 300.5 1429.12 297 1427.37 293.5 1429.12 297 1422.12Z"/>
<path transform="matrix(.7193401,0,0,.7193401,-51.78804,-870.0418)" stroke-width="1" stroke-linecap="butt" stroke-miterlimit="10" stroke-linejoin="miter" fill="none" stroke="#000000" d="M297 1422.12 300.5 1429.12 297 1427.37 293.5 1429.12 297 1422.12Z"/>
<path transform="matrix(.7193401,0,0,.7193401,-51.78804,-870.0418)" d="M297 1444.88 293.5 1437.88 297 1439.63 300.5 1437.88 297 1444.88Z"/>
<path transform="matrix(.7193401,0,0,.7193401,-51.78804,-870.0418)" stroke-width="1" stroke-linecap="butt" stroke-miterlimit="10" stroke-linejoin="miter" fill="none" stroke="#000000" d="M297 1444.88 293.5 1437.88 297 1439.63 300.5 1437.88 297 1444.88Z"/>
<path transform="matrix(.7193401,0,0,.7193401,-51.78804,-870.0418)" d="M256 1401H338V1421H256Z" fill="#6a00ff"/>
<path transform="matrix(.7193401,0,0,.7193401,-51.78804,-870.0418)" stroke-width="1" stroke-linecap="butt" stroke-miterlimit="4" stroke-linejoin="miter" fill="none" stroke="#3700cc" d="M256 1401H338V1421H256Z"/>
<text fill="#ffffff" xml:space="preserve" transform="matrix(.7193401 0 0 .7193401 -52.147714 -870.4015)" font-size="12" font-family="ArialMT"><tspan y="1415" x="268.64064 276.64463 280.64064 287.31263 293.98463 297.98063 304.65263 314.64863 317.32618">Program A</tspan></text>
<path transform="matrix(.7193401,0,0,.7193401,-51.78804,-870.0418)" d="M256 1513H338V1533H256Z" fill="#6a00ff"/>
<path transform="matrix(.7193401,0,0,.7193401,-51.78804,-870.0418)" stroke-width="1" stroke-linecap="butt" stroke-miterlimit="4" stroke-linejoin="miter" fill="none" stroke="#3700cc" d="M256 1513H338V1533H256Z"/>
<text fill="#ffffff" xml:space="preserve" transform="matrix(.7193401 0 0 .7193401 -52.147714 -870.4015)" font-size="12" font-family="ArialMT"><tspan y="1527" x="268.3125 276.3165 280.3125 286.9845 293.6565 297.6525 304.3245 314.3205 317.6565">Program B</tspan></text>
<path transform="matrix(.7193401,0,0,.7193401,-51.78804,-870.0418)" stroke-width="1" stroke-linecap="butt" stroke-miterlimit="10" stroke-linejoin="miter" fill="none" stroke="#000000" d="M297 1494.37V1506.63"/>
<path transform="matrix(.7193401,0,0,.7193401,-51.78804,-870.0418)" d="M297 1489.12 300.5 1496.12 297 1494.37 293.5 1496.12 297 1489.12Z"/>
<path transform="matrix(.7193401,0,0,.7193401,-51.78804,-870.0418)" stroke-width="1" stroke-linecap="butt" stroke-miterlimit="10" stroke-linejoin="miter" fill="none" stroke="#000000" d="M297 1489.12 300.5 1496.12 297 1494.37 293.5 1496.12 297 1489.12Z"/>
<path transform="matrix(.7193401,0,0,.7193401,-51.78804,-870.0418)" d="M297 1511.88 293.5 1504.88 297 1506.63 300.5 1504.88 297 1511.88Z"/>
<path transform="matrix(.7193401,0,0,.7193401,-51.78804,-870.0418)" stroke-width="1" stroke-linecap="butt" stroke-miterlimit="10" stroke-linejoin="miter" fill="none" stroke="#000000" d="M297 1511.88 293.5 1504.88 297 1506.63 300.5 1504.88 297 1511.88Z"/>
<path transform="matrix(.7193401,0,0,.7193401,-51.78804,-870.0418)" d="M256 1450.43C256 1447.98 274.36 1446 297 1446 307.87 1446 318.3 1446.47 325.99 1447.3 333.68 1448.13 338 1449.25 338 1450.43V1483.57C338 1484.75 333.68 1485.87 325.99 1486.7 318.3 1487.53 307.87 1488 297 1488 286.13 1488 275.7 1487.53 268.01 1486.7 260.32 1485.87 256 1484.75 256 1483.57V1450.43Z" fill="#f5f5f5"/>
<path transform="matrix(.7193401,0,0,.7193401,-51.78804,-870.0418)" stroke-width="1" stroke-linecap="butt" stroke-miterlimit="10" stroke-linejoin="miter" fill="none" stroke="#666666" d="M256 1450.43C256 1447.98 274.36 1446 297 1446 307.87 1446 318.3 1446.47 325.99 1447.3 333.68 1448.13 338 1449.25 338 1450.43V1483.57C338 1484.75 333.68 1485.87 325.99 1486.7 318.3 1487.53 307.87 1488 297 1488 286.13 1488 275.7 1487.53 268.01 1486.7 260.32 1485.87 256 1484.75 256 1483.57V1450.43Z"/>
<path transform="matrix(.7193401,0,0,.7193401,-51.78804,-870.0418)" stroke-width="1" stroke-linecap="butt" stroke-miterlimit="10" stroke-linejoin="miter" fill="none" stroke="#666666" d="M338 1450.43C338 1451.6 333.68 1452.73 325.99 1453.56 318.3 1454.39 307.87 1454.86 297 1454.86 286.13 1454.86 275.7 1454.39 268.01 1453.56 260.32 1452.73 256 1451.6 256 1450.43"/>
<text fill="#333333" xml:space="preserve" transform="matrix(.7193401 0 0 .7193401 -52.147714 -870.4015)" font-size="12" font-family="ArialMT"><tspan y="1475" x="275.65626 285.65226 292.32426 298.99626 301.66026 308.33226">Medium</tspan></text>
<path transform="matrix(.7193401,0,0,.7193401,-51.78804,-870.0418)" d="M256 1275H338V1305H256Z" fill="#6a00ff"/>
<path transform="matrix(.7193401,0,0,.7193401,-51.78804,-870.0418)" stroke-width="1" stroke-linecap="butt" stroke-miterlimit="4" stroke-linejoin="miter" fill="none" stroke="#3700cc" d="M256 1275H338V1305H256Z"/>
<text fill="#ffffff" xml:space="preserve" transform="matrix(.7193401 0 0 .7193401 -52.147714 -870.4015)" font-size="12" font-family="ArialMT"><tspan y="1287" x="264.64064 273.30464 276.64064 279.97663 282.64064 289.31263 295.98463 302.65663 309.3286 316.0006 322.6726">C. language</tspan></text>
<text fill="#ffffff" xml:space="preserve" transform="matrix(.7193401 0 0 .7193401 -52.147714 -870.4015)" font-size="12" font-family="ArialMT"><tspan y="1302" x="263.96876 269.96876 276.64076 283.31275 289.31275 291.97676 295.31275 297.97676 303.97676 310.64875 313.98475 316.64875 323.32075">specification</tspan></text>
<path transform="matrix(.7193401,0,0,.7193401,-51.78804,-870.0418)" d="M164 1275H246V1305H164Z" fill="#60a917"/>
<path transform="matrix(.7193401,0,0,.7193401,-51.78804,-870.0418)" stroke-width="1" stroke-linecap="butt" stroke-miterlimit="4" stroke-linejoin="miter" fill="none" stroke="#2d7600" d="M164 1275H246V1305H164Z"/>
<text fill="#ffffff" xml:space="preserve" transform="matrix(.7193401 0 0 .7193401 -52.147714 -870.4015)" font-size="12" font-family="ArialMT"><tspan y="1287" x="168.3125 176.9765 183.6485 187.6445 193.6445 196.3085 206.3045 212.9765 215.6405 222.3125 225.6485 228.3125 234.9845">Co-simulation</tspan></text>
<text fill="#ffffff" xml:space="preserve" transform="matrix(.7193401 0 0 .7193401 -52.147714 -870.4015)" font-size="12" font-family="ArialMT"><tspan y="1302" x="181.64063 187.64063 190.97663 197.64862 204.32062 210.99262 217.66461 221.66062">standard</tspan></text>
<path transform="matrix(.7193401,0,0,.7193401,-51.78804,-870.0418)" d="M348 1275H430V1305H348Z" fill="#d80073"/>
<path transform="matrix(.7193401,0,0,.7193401,-51.78804,-870.0418)" stroke-width="1" stroke-linecap="butt" stroke-miterlimit="4" stroke-linejoin="miter" fill="none" stroke="#a50040" d="M348 1275H430V1305H348Z"/>
<text fill="#ffffff" xml:space="preserve" transform="matrix(.7193401 0 0 .7193401 -52.147714 -870.4015)" font-size="12" font-family="ArialMT"><tspan y="1287" x="377.32814 385.33213 393.99613">ADL</tspan></text>
<text fill="#ffffff" xml:space="preserve" transform="matrix(.7193401 0 0 .7193401 -52.147714 -870.4015)" font-size="12" font-family="ArialMT"><tspan y="1302" x="355.96876 361.96876 368.64076 375.31275 381.31275 383.97676 387.31275 389.97676 395.97676 402.64875 405.98475 408.64875 415.32075">specification</tspan></text>
<path transform="matrix(.7193401,0,0,.7193401,-51.78804,-870.0418)" stroke-width="1" stroke-linecap="butt" stroke-miterlimit="10" stroke-linejoin="miter" fill="none" stroke="#000000" d="M381 1346.5V1360.13"/>
<path transform="matrix(.7193401,0,0,.7193401,-51.78804,-870.0418)" d="M381 1365.38 377.5 1358.38 381 1360.13 384.5 1358.38 381 1365.38Z"/>
<path transform="matrix(.7193401,0,0,.7193401,-51.78804,-870.0418)" stroke-width="1" stroke-linecap="butt" stroke-miterlimit="10" stroke-linejoin="miter" fill="none" stroke="#000000" d="M381 1365.38 377.5 1358.38 381 1360.13 384.5 1358.38 381 1365.38Z"/>
<path transform="matrix(.7193401,0,0,.7193401,-51.78804,-870.0418)" d="M348 1320H430V1340H348Z" fill="#d80073"/>
<path transform="matrix(.7193401,0,0,.7193401,-51.78804,-870.0418)" stroke-width="1" stroke-linecap="butt" stroke-miterlimit="4" stroke-linejoin="miter" fill="none" stroke="#a50040" d="M348 1320H430V1340H348Z"/>
<text fill="#ffffff" xml:space="preserve" transform="matrix(.7193401 0 0 .7193401 -52.147714 -870.4015)" font-size="12" font-family="ArialMT"><tspan y="1334" x="352.64064 361.30464 367.97663 377.97264 384.64463 391.31663 397.98863 404.6606 411.3326 414.6686 417.35157">Component A</tspan></text>
<path transform="matrix(.7193401,0,0,.7193401,-51.78804,-870.0418)" d="M348 1371H430V1391H348Z" fill="#d80073"/>
<path transform="matrix(.7193401,0,0,.7193401,-51.78804,-870.0418)" stroke-width="1" stroke-linecap="butt" stroke-miterlimit="4" stroke-linejoin="miter" fill="none" stroke="#a50040" d="M348 1371H430V1391H348Z"/>
<text fill="#ffffff" xml:space="preserve" transform="matrix(.7193401 0 0 .7193401 -52.147714 -870.4015)" font-size="12" font-family="ArialMT"><tspan y="1385" x="352.29689 360.96089 367.63288 377.62889 384.30088 390.97288 397.64488 404.31687 410.98887 414.32487 417.66087">Component B</tspan></text>
<path transform="matrix(.7193401,0,0,.7193401,-51.78804,-870.0418)" d="M376 1336.5H386V1346.5H376Z" fill="#d80073"/>
<path transform="matrix(.7193401,0,0,.7193401,-51.78804,-870.0418)" stroke-width="1" stroke-linecap="butt" stroke-miterlimit="4" stroke-linejoin="miter" fill="none" stroke="#a50040" d="M376 1336.5H386V1346.5H376Z"/>
<path transform="matrix(.7193401,0,0,.7193401,-51.78804,-870.0418)" d="M376 1366.5H386V1376.5H376Z" fill="#d80073"/>
<path transform="matrix(.7193401,0,0,.7193401,-51.78804,-870.0418)" stroke-width="1" stroke-linecap="butt" stroke-miterlimit="4" stroke-linejoin="miter" fill="none" stroke="#a50040" d="M376 1366.5H386V1376.5H376Z"/>
<text xml:space="preserve" transform="matrix(.7193401 0 0 .7193401 -52.147714 -870.4015)" font-size="10" font-family="ArialMT"><tspan y="1357" x="385.03126 390.03126 395.59126 401.15126 406.71125 412.27125 417.27125 420.05125 425.61125">connector</tspan></text>
<text xml:space="preserve" transform="matrix(.7193401 0 0 .7193401 -52.147714 -870.4015)" font-size="10" font-family="ArialMT"><tspan y="1350" x="355.82814 362.49815 368.05815 371.38813">Port</tspan></text>
<text xml:space="preserve" transform="matrix(.7193401 0 0 .7193401 -52.147714 -870.4015)" font-size="10" font-family="ArialMT"><tspan y="1371" x="355.82814 362.49815 368.05815 371.38813">Port</tspan></text>
<path transform="matrix(.7193401,0,0,.7193401,-51.78804,-870.0418)" d="M440 1270H520V1300H440Z" fill="#008a00"/>
<path transform="matrix(.7193401,0,0,.7193401,-51.78804,-870.0418)" stroke-width="1" stroke-linecap="butt" stroke-miterlimit="4" stroke-linejoin="miter" fill="none" stroke="#005700" d="M440 1270H520V1300H440Z"/>
<text fill="#ffffff" xml:space="preserve" transform="matrix(.7193401 0 0 .7193401 -52.147714 -870.4015)" font-size="12" font-family="ArialMT"><tspan y="1289" x="447.95314 454.62513 461.29713 467.96913 474.6411 481.3131 487.9851 494.6571 501.3291 504.01564">Language A</tspan></text>
<path transform="matrix(.7193401,0,0,.7193401,-51.78804,-870.0418)" d="M552 1270H632V1300H552Z" fill="#1ba1e2"/>
<path transform="matrix(.7193401,0,0,.7193401,-51.78804,-870.0418)" stroke-width="1" stroke-linecap="butt" stroke-miterlimit="4" stroke-linejoin="miter" fill="none" stroke="#006eaf" d="M552 1270H632V1300H552Z"/>
<text fill="#ffffff" xml:space="preserve" transform="matrix(.7193401 0 0 .7193401 -52.147714 -870.4015)" font-size="12" font-family="ArialMT"><tspan y="1289" x="559.625 566.297 572.969 579.641 586.313 592.985 599.657 606.329 613.001 616.337">Language B</tspan></text>
<path transform="matrix(.7193401,0,0,.7193401,-51.78804,-870.0418)" d="M555.3015 1290.599C554.3403 1291.166 553.3016 1291.4655 552.18557 1291.4973L552.157 1290.4978C553.1013 1290.471 553.98019 1290.2175 554.7936 1289.7377L555.3015 1290.599ZM549.0701 1290.8021C548.00466 1290.2642 547.15206 1289.4912 546.5122 1288.4833L547.35647 1287.9474C547.8979 1288.8003 548.6193 1289.4544 549.5208 1289.9096L549.0701 1290.8021ZM545.51077 1285.373C545.5036 1285.2484 545.5 1285.1242 545.5 1285 545.50009 1284.0419 545.7021 1283.1283 546.1061 1282.2593L547.0128 1282.6809C546.67098 1283.4161 546.5 1284.1892 546.5 1285 546.5 1285.1056 546.503 1285.2108 546.50906 1285.3157L545.51077 1285.373ZM548.3378 1279.6299C549.2747 1278.9911 550.308 1278.6226 551.4376 1278.5244L551.52407 1279.5208C550.5682 1279.6036 549.6939 1279.9154 548.9013 1280.456L548.3378 1279.6299ZM554.5498 1279.021C555.64456 1279.4877 556.5434 1280.2015 557.24649 1281.1627L556.4392 1281.753C555.8443 1280.9398 555.0838 1280.3358 554.1576 1279.9409L554.5498 1279.021ZM558.45626 1284.2466C558.4854 1284.4967 558.5 1284.7478 558.5 1285 558.5 1286.1068 558.2346 1287.1458 557.7039 1288.117L556.82638 1287.6375C557.27548 1286.8157 557.5 1285.9365 557.5 1285 557.5 1284.7868 557.4877 1284.5744 557.46298 1284.3626L558.45626 1284.2466Z"/>
<path transform="matrix(.7193401,0,0,.7193401,-51.78804,-870.0418)" d="M522.9316 1290.599C521.97036 1291.166 520.9317 1291.4655 519.81558 1291.4973L519.787 1290.4978C520.7313 1290.471 521.61019 1290.2175 522.4235 1289.7377L522.9316 1290.599ZM516.70016 1290.8021C515.63479 1290.2642 514.7821 1289.4912 514.1422 1288.4833L514.98648 1287.9474C515.5279 1288.8003 516.2493 1289.4544 517.1508 1289.9096L516.70016 1290.8021ZM513.14077 1285.373C513.1336 1285.2484 513.13 1285.1242 513.13 1285 513.13 1284.0415 513.33206 1283.1279 513.73617 1282.2593L514.6429 1282.6809C514.3009 1283.416 514.12997 1284.1891 514.13 1285 514.13 1285.1056 514.133 1285.2108 514.13906 1285.3157L513.14077 1285.373ZM515.96786 1279.6299C516.90469 1278.9911 517.93789 1278.6226 519.06759 1278.5244L519.154 1279.5208C518.19827 1279.6038 517.324 1279.9155 516.5313 1280.456L515.96786 1279.6299ZM522.1799 1279.021C523.27456 1279.4877 524.1734 1280.2015 524.87649 1281.1627L524.0692 1281.753C523.4743 1280.9397 522.7138 1280.3356 521.78768 1279.9409L522.1799 1279.021ZM526.0862 1284.2466C526.1154 1284.4967 526.13 1284.7478 526.13 1284.9999 526.13 1286.1067 525.8646 1287.1458 525.3339 1288.117L524.45639 1287.6375C524.9055 1286.8157 525.13009 1285.9365 525.13 1285.0001 525.13 1284.7869 525.1176 1284.5744 525.0929 1284.3626L526.0862 1284.2466Z"/>
<text xml:space="preserve" transform="matrix(.7193401 0 0 .7193401 -52.147714 -870.4015)" font-size="10" font-family="ArialMT"><tspan y="1310" x="495.8125 502.4825 508.0425 513.60256 519.16256 524.16256 526.3825 531.9425 535.2725 540.8325 543.0525 545.8325 548.0525 553.6125 556.3925 561.9525 565.28256 568.06259 573.62258 578.62258 584.18258">Behavioral interfaces</tspan></text>
<path transform="matrix(.7193401,0,0,.7193401,-51.78804,-870.0418)" stroke-width="1" stroke-linecap="butt" stroke-miterlimit="10" stroke-linejoin="miter" fill="none" stroke="#000000" d="M520 1355H545.63"/>
<path transform="matrix(.7193401,0,0,.7193401,-51.78804,-870.0418)" d="M550.88 1355 543.88 1358.5 545.63 1355 543.88 1351.5 550.88 1355Z"/>
<path transform="matrix(.7193401,0,0,.7193401,-51.78804,-870.0418)" stroke-width="1" stroke-linecap="butt" stroke-miterlimit="10" stroke-linejoin="miter" fill="none" stroke="#000000" d="M550.88 1355 543.88 1358.5 545.63 1355 543.88 1351.5 550.88 1355Z"/>
<path transform="matrix(.7193401,0,0,.7193401,-51.78804,-870.0418)" d="M440 1340H520V1370H440Z" fill="#008a00"/>
<path transform="matrix(.7193401,0,0,.7193401,-51.78804,-870.0418)" stroke-width="1" stroke-linecap="butt" stroke-miterlimit="4" stroke-linejoin="miter" fill="none" stroke="#005700" d="M440 1340H520V1370H440Z"/>
<text fill="#ffffff" xml:space="preserve" transform="matrix(.7193401 0 0 .7193401 -52.147714 -870.4015)" font-size="12" font-family="ArialMT"><tspan y="1359" x="443.96876 452.63276 459.30476 469.30076 475.97276 482.64476 489.31675 495.98875 502.66075 505.99674 509.33274">Component 1</tspan></text>
<path transform="matrix(.7193401,0,0,.7193401,-51.78804,-870.0418)" d="M552 1340H632V1370H552Z" fill="#1ba1e2"/>
<path transform="matrix(.7193401,0,0,.7193401,-51.78804,-870.0418)" stroke-width="1" stroke-linecap="butt" stroke-miterlimit="4" stroke-linejoin="miter" fill="none" stroke="#006eaf" d="M552 1340H632V1370H552Z"/>
<text fill="#ffffff" xml:space="preserve" transform="matrix(.7193401 0 0 .7193401 -52.147714 -870.4015)" font-size="12" font-family="ArialMT"><tspan y="1359" x="555.96878 564.63278 571.30477 581.3007 587.9727 594.6447 601.3167 607.9887 614.6607 617.9967 621.3327">Component 2</tspan></text>
<path transform="matrix(.7193401,0,0,.7193401,-51.78804,-870.0418)" d="M355.42 1442.25H422.58C423.0672 1442.25 423.5497 1442.2975 424.02754 1442.3925 424.50535 1442.4874 424.96934 1442.6282 425.41944 1442.8146 425.86955 1443.001 426.29716 1443.2296 426.70228 1443.5003 427.1074 1443.7709 427.48219 1444.0785 427.8267 1444.4231 428.1712 1444.7677 428.4788 1445.1425 428.74946 1445.5474 429.0201 1445.9525 429.2487 1446.3801 429.43513 1446.8302 429.62156 1447.2805 429.76234 1447.7445 429.8574 1448.2223 429.95246 1448.7002 430 1449.1829 430 1449.67V1484.33C430 1484.8171 429.95246 1485.2996 429.8574 1485.7775 429.76234 1486.2553 429.62156 1486.7192 429.43513 1487.1693 429.2487 1487.6194 429.0201 1488.047 428.74946 1488.4522 428.4788 1488.8573 428.1712 1489.232 427.8267 1489.5765 427.48219 1489.921 427.1074 1490.2286 426.7023 1490.4993 426.29719 1490.77 425.86955 1490.9987 425.41944 1491.185 424.96934 1491.3715 424.50535 1491.5122 424.02754 1491.6073 423.5497 1491.7024 423.0672 1491.75 422.58 1491.75H355.42C354.9328 1491.75 354.45027 1491.7024 353.9724 1491.6073 353.49458 1491.5122 353.03059 1491.3715 352.58045 1491.185 352.1303 1490.9987 351.7027 1490.77 351.2976 1490.4993 350.89256 1490.2286 350.51777 1489.921 350.17326 1489.5765 349.82878 1489.232 349.52119 1488.8573 349.25047 1488.4522 348.9798 1488.047 348.75123 1487.6194 348.56477 1487.1693 348.37834 1486.7192 348.2376 1486.2553 348.14256 1485.7775 348.0475 1485.2996 347.99998 1484.8171 348 1484.33V1449.67C347.99998 1449.1829 348.0475 1448.7002 348.14253 1448.2223 348.23759 1447.7445 348.37834 1447.2805 348.56477 1446.8302 348.75123 1446.3801 348.9798 1445.9525 349.2505 1445.5475 349.52119 1445.1425 349.82878 1444.7677 350.17326 1444.4231 350.51777 1444.0785 350.89256 1443.7709 351.2976 1443.5003 351.7027 1443.2296 352.1303 1443.001 352.58045 1442.8146 353.03059 1442.6282 353.49458 1442.4874 353.9724 1442.3925 354.45027 1442.2975 354.9328 1442.25 355.42 1442.25Z" fill="#f5f5f5"/>
<path transform="matrix(.7193401,0,0,.7193401,-51.78804,-870.0418)" stroke-width="1" stroke-linecap="butt" stroke-miterlimit="4" stroke-linejoin="miter" fill="none" stroke="#666666" d="M355.42 1442.25H422.58C423.0672 1442.25 423.5497 1442.2975 424.02754 1442.3925 424.50535 1442.4874 424.96934 1442.6282 425.41944 1442.8146 425.86955 1443.001 426.29716 1443.2296 426.70228 1443.5003 427.1074 1443.7709 427.48219 1444.0785 427.8267 1444.4231 428.1712 1444.7677 428.4788 1445.1425 428.74946 1445.5474 429.0201 1445.9525 429.2487 1446.3801 429.43513 1446.8302 429.62156 1447.2805 429.76234 1447.7445 429.8574 1448.2223 429.95246 1448.7002 430 1449.1829 430 1449.67V1484.33C430 1484.8171 429.95246 1485.2996 429.8574 1485.7775 429.76234 1486.2553 429.62156 1486.7192 429.43513 1487.1693 429.2487 1487.6194 429.0201 1488.047 428.74946 1488.4522 428.4788 1488.8573 428.1712 1489.232 427.8267 1489.5765 427.48219 1489.921 427.1074 1490.2286 426.7023 1490.4993 426.29719 1490.77 425.86955 1490.9987 425.41944 1491.185 424.96934 1491.3715 424.50535 1491.5122 424.02754 1491.6073 423.5497 1491.7024 423.0672 1491.75 422.58 1491.75H355.42C354.9328 1491.75 354.45027 1491.7024 353.9724 1491.6073 353.49458 1491.5122 353.03059 1491.3715 352.58045 1491.185 352.1303 1490.9987 351.7027 1490.77 351.2976 1490.4993 350.89256 1490.2286 350.51777 1489.921 350.17326 1489.5765 349.82878 1489.232 349.52119 1488.8573 349.25047 1488.4522 348.9798 1488.047 348.75123 1487.6194 348.56477 1487.1693 348.37834 1486.7192 348.2376 1486.2553 348.14256 1485.7775 348.0475 1485.2996 347.99998 1484.8171 348 1484.33V1449.67C347.99998 1449.1829 348.0475 1448.7002 348.14253 1448.2223 348.23759 1447.7445 348.37834 1447.2805 348.56477 1446.8302 348.75123 1446.3801 348.9798 1445.9525 349.2505 1445.5475 349.52119 1445.1425 349.82878 1444.7677 350.17326 1444.4231 350.51777 1444.0785 350.89256 1443.7709 351.2976 1443.5003 351.7027 1443.2296 352.1303 1443.001 352.58045 1442.8146 353.03059 1442.6282 353.49458 1442.4874 353.9724 1442.3925 354.45027 1442.2975 354.9328 1442.25 355.42 1442.25Z"/>
<text fill="#333333" xml:space="preserve" transform="matrix(.7193401 0 0 .7193401 -52.147714 -870.4015)" font-size="12" font-family="ArialMT"><tspan y="1457" x="377.32814 385.33213 393.99613">ADL</tspan></text>
<text fill="#333333" xml:space="preserve" transform="matrix(.7193401 0 0 .7193401 -52.147714 -870.4015)" font-size="12" font-family="ArialMT"><tspan y="1471" x="357.96876 363.96876 370.64076 373.30476 375.96876 382.64076 389.31275 392.64875 395.31275 401.98475 408.65675 411.99275">validation &#x0026;</tspan></text>
<text fill="#333333" xml:space="preserve" transform="matrix(.7193401 0 0 .7193401 -52.147714 -870.4015)" font-size="12" font-family="ArialMT"><tspan y="1486" x="363.3125 369.9845 375.9845 382.6565 388.6565 395.3285 398.6645 401.3285 408.0005">execution</tspan></text>
<path transform="matrix(.7193401,0,0,.7193401,-51.78804,-870.0418)" d="M447.42 1442.25H624.58C625.0672 1442.25 625.5497 1442.2975 626.0275 1442.3925 626.5054 1442.4874 626.9693 1442.6282 627.41946 1442.8146 627.86959 1443.001 628.2972 1443.2296 628.7023 1443.5003 629.10739 1443.7709 629.4822 1444.0785 629.8267 1444.4231 630.1712 1444.7677 630.47879 1445.1425 630.74948 1445.5474 631.02017 1445.9525 631.24868 1446.3801 631.4351 1446.8302 631.6216 1447.2805 631.7623 1447.7445 631.8574 1448.2223 631.95248 1448.7002 631.99996 1449.1829 632 1449.67V1484.33C631.99996 1484.8171 631.95248 1485.2996 631.8574 1485.7775 631.7623 1486.2553 631.6216 1486.7192 631.4351 1487.1693 631.24868 1487.6194 631.02017 1488.047 630.74948 1488.4522 630.47879 1488.8573 630.1712 1489.232 629.8267 1489.5765 629.4822 1489.921 629.10739 1490.2286 628.7023 1490.4993 628.2972 1490.77 627.86959 1490.9987 627.4195 1491.185 626.96939 1491.3715 626.5054 1491.5122 626.0275 1491.6073 625.5497 1491.7024 625.0672 1491.75 624.58 1491.75H447.42C446.9328 1491.75 446.4503 1491.7024 445.9724 1491.6073 445.49455 1491.5122 445.03056 1491.3715 444.58045 1491.185 444.1303 1490.9987 443.7027 1490.77 443.29765 1490.4993 442.89256 1490.2286 442.51777 1489.921 442.17326 1489.5765 441.82875 1489.232 441.52116 1488.8573 441.2505 1488.4522 440.9798 1488.047 440.75123 1487.6194 440.5648 1487.1693 440.37834 1486.7192 440.23759 1486.2553 440.14256 1485.7775 440.0475 1485.2996 439.99998 1484.8171 440 1484.33V1449.67C439.99998 1449.1829 440.0475 1448.7002 440.14256 1448.2223 440.23759 1447.7445 440.37834 1447.2805 440.56477 1446.8302 440.7512 1446.3801 440.97978 1445.9525 441.25047 1445.5475 441.52113 1445.1425 441.82875 1444.7677 442.17326 1444.4231 442.51777 1444.0785 442.89256 1443.7709 443.29765 1443.5003 443.70274 1443.2296 444.13035 1443.001 444.58049 1442.8146 445.03059 1442.6282 445.49455 1442.4874 445.9724 1442.3925 446.4503 1442.2975 446.9328 1442.25 447.42 1442.25Z" fill="#f5f5f5"/>
<path transform="matrix(.7193401,0,0,.7193401,-51.78804,-870.0418)" stroke-width="1" stroke-linecap="butt" stroke-miterlimit="4" stroke-linejoin="miter" fill="none" stroke="#666666" d="M447.42 1442.25H624.58C625.0672 1442.25 625.5497 1442.2975 626.0275 1442.3925 626.5054 1442.4874 626.9693 1442.6282 627.41946 1442.8146 627.86959 1443.001 628.2972 1443.2296 628.7023 1443.5003 629.10739 1443.7709 629.4822 1444.0785 629.8267 1444.4231 630.1712 1444.7677 630.47879 1445.1425 630.74948 1445.5474 631.02017 1445.9525 631.24868 1446.3801 631.4351 1446.8302 631.6216 1447.2805 631.7623 1447.7445 631.8574 1448.2223 631.95248 1448.7002 631.99996 1449.1829 632 1449.67V1484.33C631.99996 1484.8171 631.95248 1485.2996 631.8574 1485.7775 631.7623 1486.2553 631.6216 1486.7192 631.4351 1487.1693 631.24868 1487.6194 631.02017 1488.047 630.74948 1488.4522 630.47879 1488.8573 630.1712 1489.232 629.8267 1489.5765 629.4822 1489.921 629.10739 1490.2286 628.7023 1490.4993 628.2972 1490.77 627.86959 1490.9987 627.4195 1491.185 626.96939 1491.3715 626.5054 1491.5122 626.0275 1491.6073 625.5497 1491.7024 625.0672 1491.75 624.58 1491.75H447.42C446.9328 1491.75 446.4503 1491.7024 445.9724 1491.6073 445.49455 1491.5122 445.03056 1491.3715 444.58045 1491.185 444.1303 1490.9987 443.7027 1490.77 443.29765 1490.4993 442.89256 1490.2286 442.51777 1489.921 442.17326 1489.5765 441.82875 1489.232 441.52116 1488.8573 441.2505 1488.4522 440.9798 1488.047 440.75123 1487.6194 440.5648 1487.1693 440.37834 1486.7192 440.23759 1486.2553 440.14256 1485.7775 440.0475 1485.2996 439.99998 1484.8171 440 1484.33V1449.67C439.99998 1449.1829 440.0475 1448.7002 440.14256 1448.2223 440.23759 1447.7445 440.37834 1447.2805 440.56477 1446.8302 440.7512 1446.3801 440.97978 1445.9525 441.25047 1445.5475 441.52113 1445.1425 441.82875 1444.7677 442.17326 1444.4231 442.51777 1444.0785 442.89256 1443.7709 443.29765 1443.5003 443.70274 1443.2296 444.13035 1443.001 444.58049 1442.8146 445.03059 1442.6282 445.49455 1442.4874 445.9724 1442.3925 446.4503 1442.2975 446.9328 1442.25 447.42 1442.25Z"/>
<text fill="#333333" xml:space="preserve" transform="matrix(.7193401 0 0 .7193401 -52.147714 -870.4015)" font-size="12" font-family="ArialMT"><tspan y="1464" x="457.60939 466.94538 469.60939 476.28138 482.95338 489.62538 492.28938 495.62538 502.29737 508.96937 515.64138 522.31338 528.31338 530.97738 537.64938 541.6453 544.9813 550.9813 557.6533 564.3253 570.3253 572.9893 576.3253 578.9893 584.9893 591.6613 594.9973 597.6613 604.3333 611.0053">Global behavior specification,</tspan></text>
<text fill="#333333" xml:space="preserve" transform="matrix(.7193401 0 0 .7193401 -52.147714 -870.4015)" font-size="12" font-family="ArialMT"><tspan y="1479" x="477.625 483.625 490.297 492.961 495.625 502.297 508.969 512.305 514.969 521.641 528.313 531.649 539.653 542.989 549.661 555.661 562.333 568.333 575.005 578.341 581.005 587.677">validation &#x0026; execution</tspan></text>
</g>
</svg>
